<svg xmlns="http://www.w3.org/2000/svg" xmlns:v="https://svgstorm.com"
viewBox = "0 0 1000 1000"
width="1000"
height="1000">
<g fill="None" fill-opacity="0.0" stroke="#FEFEFE" stroke-opacity="1.00" stroke-width="0.3"><path d="
M 0.00 1000.00 
L 1000.00 1000.00
L 1000.00 0.00
L 0.00 0.00
L 0.00 1000.00
M 558.00 570.00 
C 555.07 569.70 551.95 570.00 549.00 570.00
C 539.02 570.00 538.31 573.14 539.00 582.00 C 539.69 590.86 538.60 596.19 539.00 604.00 C 539.40 611.81 538.62 618.92 539.00 626.00 C 539.38 633.08 538.39 641.83 539.00 648.00 C 539.61 654.17 548.73 659.15 539.00 660.00 C 529.26 660.85 527.28 659.01 517.00 660.00 C 506.72 660.99 510.87 655.73 513.00 649.00
C 514.55 640.34 512.42 630.81 513.00 622.00 C 513.58 613.19 512.93 602.72 513.00 594.00 C 513.07 585.28 513.40 574.22 513.00 566.00 C 512.60 557.78 514.13 544.97 513.00 538.00 C 511.87 531.03 516.53 514.07 511.00 512.00
C 497.40 512.75 485.07 521.78 470.98 522.98 C 456.88 524.17 437.37 526.15 423.33 523.67 C 409.29 521.19 396.22 517.73 384.77 510.23 C 373.32 502.73 366.10 496.44 359.08 484.92 C 352.05 473.41 347.69 459.93 347.01 445.99 C 346.33 432.06 349.44 413.49 353.98 400.98 C 358.51 388.46 364.31 378.35 371.92 367.92 C 379.53 357.48 387.53 350.55 397.70 342.70 C 407.86 334.85 417.21 327.85 429.70 322.69 C 442.18 317.54 454.62 313.22 469.07 311.07 C 483.53 308.93 503.91 310.61 519.00 311.00
C 524.15 302.73 516.96 293.90 528.01 290.01 C 539.06 286.11 539.25 298.00 539.00 307.00 C 538.75 316.00 539.12 326.23 550.00 327.00
C 545.75 335.15 541.53 332.12 534.25 340.25 C 526.96 348.37 521.44 339.89 521.02 330.98 C 520.61 322.06 506.52 321.75 501.00 321.00
C 496.02 320.81 490.99 321.00 486.00 321.00
C 462.79 321.00 441.77 331.97 424.00 346.00
C 420.50 349.24 416.08 353.47 413.00 357.00
C 407.53 364.35 402.69 370.34 398.70 378.70 C 394.70 387.05 390.37 394.70 388.08 404.08 C 385.79 413.45 384.00 425.86 384.00 436.00 C 384.00 446.14 385.53 458.06 388.98 467.02 C 392.42 475.99 396.86 481.84 403.25 488.75 C 409.64 495.67 415.62 500.29 424.08 503.92 C 432.53 507.56 443.38 511.34 453.00 511.00 C 462.62 510.66 478.05 512.10 486.07 508.07 C 494.09 504.05 508.12 505.65 513.00 498.00
C 515.60 491.97 512.24 482.76 513.00 476.00 C 513.76 469.24 513.38 459.94 513.00 453.00
C 512.27 439.62 500.90 442.74 492.00 444.00 C 483.09 445.26 472.03 448.18 465.77 452.77 C 459.51 457.36 446.13 468.67 447.78 455.78 C 449.43 442.89 433.10 448.46 425.00 444.00
C 428.82 433.51 447.78 443.94 448.00 430.00 C 448.21 416.06 457.94 425.83 466.70 431.30 C 475.46 436.78 489.03 432.61 499.07 431.07 C 509.12 429.53 522.50 429.04 532.67 426.67 C 542.84 424.30 554.96 423.31 565.07 421.07 C 575.18 418.83 588.72 419.33 598.01 416.01 C 607.30 412.69 609.16 400.18 620.00 401.00 C 630.84 401.82 638.79 408.42 640.93 418.07 C 643.07 427.73 632.23 441.11 622.00 437.00 C 611.77 432.89 604.87 428.14 592.93 429.93 C 580.98 431.71 571.01 433.03 558.98 433.98 C 546.94 434.93 536.71 437.26 539.00 452.00 C 541.29 466.74 537.29 475.78 539.00 490.00
C 568.25 474.47 613.72 454.81 641.25 485.75 C 668.77 516.70 628.79 558.28 596.00 561.00
C 594.15 562.92 600.46 568.46 602.00 570.00
C 617.19 582.98 629.52 598.05 644.25 611.75 C 658.98 625.45 676.18 641.87 697.00 643.00
C 700.25 643.18 703.75 643.22 707.00 643.00
C 734.95 641.10 749.08 613.36 761.31 590.31 C 773.53 567.25 781.03 534.22 784.00 506.00 C 786.97 477.78 784.10 435.41 776.22 408.78 C 768.35 382.15 758.43 356.27 743.23 333.77 C 728.03 311.27 714.15 294.38 692.25 277.75 C 670.35 261.13 649.29 249.94 622.78 240.22 C 596.26 230.51 560.70 224.00 531.00 224.00
C 524.33 224.00 517.67 224.00 511.00 224.00
C 421.53 224.00 339.61 271.61 291.23 348.23 C 242.85 424.85 240.58 540.20 291.00 618.00
C 262.72 582.38 247.27 536.02 244.00 490.00
C 243.83 491.75 243.05 494.60 243.00 497.00
C 241.91 551.53 270.39 605.50 305.00 646.00
C 312.25 653.25 319.80 660.80 327.00 668.00
C 336.61 676.21 344.66 682.81 355.08 689.92 C 365.50 697.02 375.54 702.90 387.08 708.92 C 398.62 714.95 409.90 719.77 422.68 724.32 C 435.45 728.88 448.99 731.98 463.00 735.00 C 477.01 738.02 493.71 740.10 509.00 740.00 C 524.29 739.90 541.91 739.66 556.22 737.22 C 570.53 734.78 584.93 732.56 598.02 728.02 C 611.12 723.48 622.79 720.13 634.69 713.70 C 646.60 707.26 656.15 703.28 667.08 695.08 C 678.01 686.88 689.93 679.46 705.00 682.00
C 653.08 730.78 584.16 756.83 513.00 758.00
C 509.23 758.36 504.70 758.36 501.00 758.00
C 361.53 758.00 223.00 643.09 223.00 498.00
C 222.33 491.08 222.34 482.85 223.00 476.00
C 223.00 441.80 232.81 403.38 246.77 373.77 C 260.73 344.16 275.05 321.52 297.77 297.77 C 320.49 274.02 340.38 259.17 368.75 242.75 C 397.11 226.32 430.69 217.09 464.00 211.00 C 497.32 204.91 545.74 206.69 578.02 214.98 C 610.31 223.26 641.44 233.47 668.23 251.77 C 695.02 270.07 713.86 286.28 734.25 311.75 C 754.63 337.22 767.71 362.25 779.93 393.07 C 792.14 423.90 797.91 467.73 795.22 502.22 C 792.53 536.71 784.09 573.76 769.68 603.68 C 755.27 633.60 741.09 657.43 708.93 668.93 C 676.76 680.42 644.01 652.80 622.75 632.25 C 601.50 611.69 588.20 576.69 558.00 570.00
M 530.00 781.00 
C 518.43 782.40 504.50 782.11 493.00 781.00
C 419.58 781.00 350.77 748.77 299.00 697.00
C 295.06 693.06 290.29 688.99 288.00 684.00
C 291.98 687.19 295.89 691.03 299.00 695.00
C 394.30 778.05 534.17 785.77 648.00 740.00
C 654.15 736.86 660.39 732.85 667.00 730.00
C 690.42 719.89 708.79 700.06 728.00 683.00
C 682.83 746.37 605.52 776.52 530.00 781.00 Z"/>
</g>
<g fill="None" fill-opacity="0.0" stroke="#121635" stroke-opacity="1.00" stroke-width="0.3"><path d="
M 223.00 476.00 
C 223.00 483.33 223.00 490.67 223.00 498.00
C 223.00 643.09 361.53 758.00 501.00 758.00
C 505.00 758.00 509.00 758.00 513.00 758.00
C 584.16 756.83 653.08 730.78 705.00 682.00
C 689.93 679.46 678.01 686.88 667.08 695.08 C 656.15 703.28 646.60 707.26 634.69 713.70 C 622.79 720.13 611.12 723.48 598.02 728.02 C 584.93 732.56 570.53 734.78 556.22 737.22 C 541.91 739.66 524.29 739.90 509.00 740.00 C 493.71 740.10 477.01 738.02 463.00 735.00 C 448.99 731.98 435.45 728.88 422.68 724.32 C 409.90 719.77 398.62 714.95 387.08 708.92 C 375.54 702.90 365.50 697.02 355.08 689.92 C 344.66 682.81 336.61 676.21 327.00 668.00
C 319.27 661.39 311.57 653.68 305.00 646.00
C 270.39 605.50 241.91 551.53 243.00 497.00
C 242.32 489.99 242.00 481.70 242.00 474.00
C 242.00 467.80 242.66 462.20 243.00 456.00
C 243.19 452.47 244.00 449.57 244.00 446.00
C 245.57 448.94 245.71 455.13 244.00 458.00
C 244.87 465.09 244.00 472.85 244.00 480.00
C 244.00 483.33 244.00 486.67 244.00 490.00
C 247.27 536.02 262.72 582.38 291.00 618.00
C 240.58 540.20 242.85 424.85 291.23 348.23 C 339.61 271.61 421.53 224.00 511.00 224.00
C 517.30 223.39 524.77 223.40 531.00 224.00
C 560.70 224.00 596.26 230.51 622.78 240.22 C 649.29 249.94 670.35 261.13 692.25 277.75 C 714.15 294.38 728.03 311.27 743.23 333.77 C 758.43 356.27 768.35 382.15 776.22 408.78 C 784.10 435.41 786.97 477.78 784.00 506.00 C 781.03 534.22 773.53 567.25 761.31 590.31 C 749.08 613.36 734.95 641.10 707.00 643.00
C 703.53 643.62 700.40 643.55 697.00 643.00
C 676.18 641.87 658.98 625.45 644.25 611.75 C 629.52 598.05 617.19 582.98 602.00 570.00
C 599.11 567.53 596.45 564.47 593.00 563.00
C 593.44 561.71 594.58 560.79 596.00 561.00
C 628.79 558.28 668.77 516.70 641.25 485.75 C 613.72 454.81 568.25 474.47 539.00 490.00
C 537.29 475.78 541.29 466.74 539.00 452.00 C 536.71 437.26 546.94 434.93 558.98 433.98 C 571.01 433.03 580.98 431.71 592.93 429.93 C 604.87 428.14 611.77 432.89 622.00 437.00 C 632.23 441.11 643.07 427.73 640.93 418.07 C 638.79 408.42 630.84 401.82 620.00 401.00 C 609.16 400.18 607.30 412.69 598.01 416.01 C 588.72 419.33 575.18 418.83 565.07 421.07 C 554.96 423.31 542.84 424.30 532.67 426.67 C 522.50 429.04 509.12 429.53 499.07 431.07 C 489.03 432.61 475.46 436.78 466.70 431.30 C 457.94 425.83 448.21 416.06 448.00 430.00 C 447.78 443.94 428.82 433.51 425.00 444.00
C 433.10 448.46 449.43 442.89 447.78 455.78 C 446.13 468.67 459.51 457.36 465.77 452.77 C 472.03 448.18 483.09 445.26 492.00 444.00 C 500.90 442.74 512.27 439.62 513.00 453.00
C 514.00 459.15 514.99 468.20 514.00 475.00 C 513.01 481.80 516.53 492.46 513.00 498.00
C 508.12 505.65 494.09 504.05 486.07 508.07 C 478.05 512.10 462.62 510.66 453.00 511.00 C 443.38 511.34 432.53 507.56 424.08 503.92 C 415.62 500.29 409.64 495.67 403.25 488.75 C 396.86 481.84 392.42 475.99 388.98 467.02 C 385.53 458.06 384.00 446.14 384.00 436.00 C 384.00 425.86 385.79 413.45 388.08 404.08 C 390.37 394.70 394.70 387.05 398.70 378.70 C 402.69 370.34 407.53 364.35 413.00 357.00
C 416.01 352.95 420.10 349.08 424.00 346.00
C 441.77 331.97 462.79 321.00 486.00 321.00
C 490.79 320.54 496.23 320.32 501.00 321.00
C 506.52 321.75 520.61 322.06 521.02 330.98 C 521.44 339.89 526.96 348.37 534.25 340.25 C 541.53 332.12 545.75 335.15 550.00 327.00
C 539.12 326.23 538.75 316.00 539.00 307.00 C 539.25 298.00 539.06 286.11 528.01 290.01 C 516.96 293.90 524.15 302.73 519.00 311.00
C 503.91 310.61 483.53 308.93 469.07 311.07 C 454.62 313.22 442.18 317.54 429.70 322.69 C 417.21 327.85 407.86 334.85 397.70 342.70 C 387.53 350.55 379.53 357.48 371.92 367.92 C 364.31 378.35 358.51 388.46 353.98 400.98 C 349.44 413.49 346.33 432.06 347.01 445.99 C 347.69 459.93 352.05 473.41 359.08 484.92 C 366.10 496.44 373.32 502.73 384.77 510.23 C 396.22 517.73 409.29 521.19 423.33 523.67 C 437.37 526.15 456.88 524.17 470.98 522.98 C 485.07 521.78 497.40 512.75 511.00 512.00
C 511.34 511.98 512.99 510.11 514.00 511.00
C 513.33 556.84 515.33 603.99 513.00 649.00
C 510.87 655.73 506.72 660.99 517.00 660.00 C 527.28 659.01 529.26 660.85 539.00 660.00 C 548.73 659.15 539.61 654.17 539.00 648.00 C 538.39 641.83 539.38 633.08 539.00 626.00 C 538.62 618.92 539.40 611.81 539.00 604.00 C 538.60 596.19 539.69 590.86 539.00 582.00 C 538.31 573.14 539.02 570.00 549.00 570.00
C 552.07 569.70 554.86 569.30 558.00 570.00
C 588.20 576.69 601.50 611.69 622.75 632.25 C 644.01 652.80 676.76 680.42 708.93 668.93 C 741.09 657.43 755.27 633.60 769.68 603.68 C 784.09 573.76 792.53 536.71 795.22 502.22 C 797.91 467.73 792.14 423.90 779.93 393.07 C 767.71 362.25 754.63 337.22 734.25 311.75 C 713.86 286.28 695.02 270.07 668.23 251.77 C 641.44 233.47 610.31 223.26 578.02 214.98 C 545.74 206.69 497.32 204.91 464.00 211.00 C 430.69 217.09 397.11 226.32 368.75 242.75 C 340.38 259.17 320.49 274.02 297.77 297.77 C 275.05 321.52 260.73 344.16 246.77 373.77 C 232.81 403.38 223.00 441.80 223.00 476.00
M 389.00 367.00 
C 376.77 391.98 364.11 422.11 370.33 450.67 C 376.55 479.23 390.73 496.59 415.00 511.00
C 351.69 493.16 344.86 403.32 390.00 363.00
C 392.27 360.57 393.76 356.67 397.00 356.00
C 394.65 359.87 392.14 363.90 389.00 367.00
M 617.00 541.00 
C 633.76 526.70 635.98 499.35 618.00 485.00
C 643.34 493.54 642.11 532.82 617.00 541.00
M 612.00 510.00 
C 612.73 513.28 612.80 515.76 612.00 519.00
C 609.70 528.28 603.78 536.57 595.30 541.30 C 586.82 546.04 577.24 552.39 567.93 553.93 C 558.61 555.46 539.41 563.85 539.00 551.00 C 538.59 538.15 539.34 523.41 539.00 511.00 C 538.66 498.59 550.97 497.33 560.23 492.23 C 569.49 487.13 582.75 486.64 593.07 488.93 C 603.39 491.21 609.78 499.97 612.00 510.00 Z"/>
</g>
<g fill="None" fill-opacity="0.0" stroke="#75778B" stroke-opacity="1.00" stroke-width="0.3"><path d="
M 511.00 224.00 
C 517.67 224.00 524.33 224.00 531.00 224.00
C 524.77 223.40 517.30 223.39 511.00 224.00 Z"/>
</g>
<g fill="None" fill-opacity="0.0" stroke="#818295" stroke-opacity="1.00" stroke-width="0.3"><path d="
M 486.00 321.00 
C 490.99 321.00 496.02 320.81 501.00 321.00
C 496.23 320.32 490.79 320.54 486.00 321.00 Z"/>
</g>
<g fill="None" fill-opacity="0.0" stroke="#818396" stroke-opacity="1.00" stroke-width="0.3"><path d="
M 413.00 357.00 
C 416.08 353.47 420.50 349.24 424.00 346.00
C 420.10 349.08 416.01 352.95 413.00 357.00 Z"/>
</g>
<g fill="None" fill-opacity="0.0" stroke="#9699A8" stroke-opacity="1.00" stroke-width="0.3"><path d="
M 390.00 363.00 
C 390.04 362.92 389.45 366.09 389.00 367.00
C 392.14 363.90 394.65 359.87 397.00 356.00
C 393.76 356.67 392.27 360.57 390.00 363.00 Z"/>
</g>
<g fill="None" fill-opacity="0.0" stroke="#EAEBED" stroke-opacity="1.00" stroke-width="0.3"><path d="
M 389.00 367.00 
C 389.45 366.09 390.04 362.92 390.00 363.00
C 344.86 403.32 351.69 493.16 415.00 511.00
C 390.73 496.59 376.55 479.23 370.33 450.67 C 364.11 422.11 376.77 391.98 389.00 367.00 Z"/>
</g>
<g fill="None" fill-opacity="0.0" stroke="#3E415E" stroke-opacity="1.00" stroke-width="0.3"><path d="
M 243.00 456.00 
C 243.13 456.51 243.88 457.02 244.00 458.00
C 245.71 455.13 245.57 448.94 244.00 446.00
C 244.00 449.57 243.19 452.47 243.00 456.00 Z"/>
</g>
<g fill="None" fill-opacity="0.0" stroke="#616478" stroke-opacity="1.00" stroke-width="0.3"><path d="
M 513.00 498.00 
C 516.53 492.46 513.01 481.80 514.00 475.00 C 514.99 468.20 514.00 459.15 513.00 453.00
C 513.38 459.94 513.76 469.24 513.00 476.00 C 512.24 482.76 515.60 491.97 513.00 498.00 Z"/>
</g>
<g fill="None" fill-opacity="0.0" stroke="#818399" stroke-opacity="1.00" stroke-width="0.3"><path d="
M 242.00 474.00 
C 242.16 475.30 243.85 478.76 244.00 480.00
C 244.00 472.85 244.87 465.09 244.00 458.00
C 243.88 457.02 243.13 456.51 243.00 456.00
C 242.66 462.20 242.00 467.80 242.00 474.00 Z"/>
</g>
<g fill="None" fill-opacity="0.0" stroke="#AFB0BF" stroke-opacity="1.00" stroke-width="0.3"><path d="
M 243.00 497.00 
C 243.05 494.60 243.83 491.75 244.00 490.00
C 244.00 486.67 244.00 483.33 244.00 480.00
C 243.85 478.76 242.16 475.30 242.00 474.00
C 242.00 481.70 242.32 489.99 243.00 497.00 Z"/>
</g>
<g fill="None" fill-opacity="0.0" stroke="#8E91A0" stroke-opacity="1.00" stroke-width="0.3"><path d="
M 223.00 498.00 
C 223.00 490.67 223.00 483.33 223.00 476.00
C 222.34 482.85 222.33 491.08 223.00 498.00 Z"/>
</g>
<g fill="None" fill-opacity="0.0" stroke="#DFE0E4" stroke-opacity="1.00" stroke-width="0.3"><path d="
M 617.00 541.00 
C 642.11 532.82 643.34 493.54 618.00 485.00
C 635.98 499.35 633.76 526.70 617.00 541.00 Z"/>
</g>
<g fill="None" fill-opacity="0.0" stroke="#FAFAFB" stroke-opacity="1.00" stroke-width="0.3"><path d="
M 612.00 519.00 
C 612.34 516.25 612.28 512.75 612.00 510.00
C 609.78 499.97 603.39 491.21 593.07 488.93 C 582.75 486.64 569.49 487.13 560.23 492.23 C 550.97 497.33 538.66 498.59 539.00 511.00 C 539.34 523.41 538.59 538.15 539.00 551.00 C 539.41 563.85 558.61 555.46 567.93 553.93 C 577.24 552.39 586.82 546.04 595.30 541.30 C 603.78 536.57 609.70 528.28 612.00 519.00 Z"/>
</g>
<g fill="None" fill-opacity="0.0" stroke="#848797" stroke-opacity="1.00" stroke-width="0.3"><path d="
M 612.00 519.00 
C 612.80 515.76 612.73 513.28 612.00 510.00
C 612.28 512.75 612.34 516.25 612.00 519.00 Z"/>
</g>
<g fill="None" fill-opacity="0.0" stroke="#63667B" stroke-opacity="1.00" stroke-width="0.3"><path d="
M 511.00 512.00 
C 516.53 514.07 511.87 531.03 513.00 538.00 C 514.13 544.97 512.60 557.78 513.00 566.00 C 513.40 574.22 513.07 585.28 513.00 594.00 C 512.93 602.72 513.58 613.19 513.00 622.00 C 512.42 630.81 514.55 640.34 513.00 649.00
C 515.33 603.99 513.33 556.84 514.00 511.00
C 512.99 510.11 511.34 511.98 511.00 512.00 Z"/>
</g>
<g fill="None" fill-opacity="0.0" stroke="#818493" stroke-opacity="1.00" stroke-width="0.3"><path d="
M 602.00 570.00 
C 600.46 568.46 594.15 562.92 596.00 561.00
C 594.58 560.79 593.44 561.71 593.00 563.00
C 596.45 564.47 599.11 567.53 602.00 570.00 Z"/>
</g>
<g fill="None" fill-opacity="0.0" stroke="#818295" stroke-opacity="1.00" stroke-width="0.3"><path d="
M 549.00 570.00 
C 551.95 570.00 555.07 569.70 558.00 570.00
C 554.86 569.30 552.07 569.70 549.00 570.00 Z"/>
</g>
<g fill="None" fill-opacity="0.0" stroke="#757688" stroke-opacity="1.00" stroke-width="0.3"><path d="
M 707.00 643.00 
C 703.75 643.22 700.25 643.18 697.00 643.00
C 700.40 643.55 703.53 643.62 707.00 643.00 Z"/>
</g>
<g fill="None" fill-opacity="0.0" stroke="#858796" stroke-opacity="1.00" stroke-width="0.3"><path d="
M 327.00 668.00 
C 319.80 660.80 312.25 653.25 305.00 646.00
C 311.57 653.68 319.27 661.39 327.00 668.00 Z"/>
</g>
<g fill="None" fill-opacity="0.0" stroke="#CAA741" stroke-opacity="1.00" stroke-width="0.3"><path d="
M 667.00 730.00 
C 660.87 733.56 654.76 737.28 648.00 740.00
C 534.17 785.77 394.30 778.05 299.00 695.00
C 299.02 695.07 298.53 696.03 299.00 697.00
C 350.77 748.77 419.58 781.00 493.00 781.00
C 505.32 781.00 517.68 781.25 530.00 781.00
C 605.52 776.52 682.83 746.37 728.00 683.00
C 708.79 700.06 690.42 719.89 667.00 730.00 Z"/>
</g>
<g fill="None" fill-opacity="0.0" stroke="#E0D4A5" stroke-opacity="1.00" stroke-width="0.3"><path d="
M 299.00 697.00 
C 298.53 696.03 299.02 695.07 299.00 695.00
C 295.89 691.03 291.98 687.19 288.00 684.00
C 290.29 688.99 295.06 693.06 299.00 697.00 Z"/>
</g>
<g fill="None" fill-opacity="0.0" stroke="#E1D4A3" stroke-opacity="1.00" stroke-width="0.3"><path d="
M 648.00 740.00 
C 654.76 737.28 660.87 733.56 667.00 730.00
C 660.39 732.85 654.15 736.86 648.00 740.00 Z"/>
</g>
<g fill="None" fill-opacity="0.0" stroke="#797A8D" stroke-opacity="1.00" stroke-width="0.3"><path d="
M 513.00 758.00 
C 509.00 758.00 505.00 758.00 501.00 758.00
C 504.70 758.36 509.23 758.36 513.00 758.00 Z"/>
</g>
<g fill="None" fill-opacity="0.0" stroke="#E5D8A6" stroke-opacity="1.00" stroke-width="0.3"><path d="
M 530.00 781.00 
C 517.68 781.25 505.32 781.00 493.00 781.00
C 504.50 782.11 518.43 782.40 530.00 781.00 Z"/>
</g>
<g fill="#FEFEFE" fill-opacity="1.00" stroke="None">
<path d="
M 0.00 1000.00 
L 1000.00 1000.00
L 1000.00 0.00
L 0.00 0.00
L 0.00 1000.00
M 558.00 570.00 
C 555.07 569.70 551.95 570.00 549.00 570.00
C 539.02 570.00 538.31 573.14 539.00 582.00 C 539.69 590.86 538.60 596.19 539.00 604.00 C 539.40 611.81 538.62 618.92 539.00 626.00 C 539.38 633.08 538.39 641.83 539.00 648.00 C 539.61 654.17 548.73 659.15 539.00 660.00 C 529.26 660.85 527.28 659.01 517.00 660.00 C 506.72 660.99 510.87 655.73 513.00 649.00
C 514.55 640.34 512.42 630.81 513.00 622.00 C 513.58 613.19 512.93 602.72 513.00 594.00 C 513.07 585.28 513.40 574.22 513.00 566.00 C 512.60 557.78 514.13 544.97 513.00 538.00 C 511.87 531.03 516.53 514.07 511.00 512.00
C 497.40 512.75 485.07 521.78 470.98 522.98 C 456.88 524.17 437.37 526.15 423.33 523.67 C 409.29 521.19 396.22 517.73 384.77 510.23 C 373.32 502.73 366.10 496.44 359.08 484.92 C 352.05 473.41 347.69 459.93 347.01 445.99 C 346.33 432.06 349.44 413.49 353.98 400.98 C 358.51 388.46 364.31 378.35 371.92 367.92 C 379.53 357.48 387.53 350.55 397.70 342.70 C 407.86 334.85 417.21 327.85 429.70 322.69 C 442.18 317.54 454.62 313.22 469.07 311.07 C 483.53 308.93 503.91 310.61 519.00 311.00
C 524.15 302.73 516.96 293.90 528.01 290.01 C 539.06 286.11 539.25 298.00 539.00 307.00 C 538.75 316.00 539.12 326.23 550.00 327.00
C 545.75 335.15 541.53 332.12 534.25 340.25 C 526.96 348.37 521.44 339.89 521.02 330.98 C 520.61 322.06 506.52 321.75 501.00 321.00
C 496.02 320.81 490.99 321.00 486.00 321.00
C 462.79 321.00 441.77 331.97 424.00 346.00
C 420.50 349.24 416.08 353.47 413.00 357.00
C 407.53 364.35 402.69 370.34 398.70 378.70 C 394.70 387.05 390.37 394.70 388.08 404.08 C 385.79 413.45 384.00 425.86 384.00 436.00 C 384.00 446.14 385.53 458.06 388.98 467.02 C 392.42 475.99 396.86 481.84 403.25 488.75 C 409.64 495.67 415.62 500.29 424.08 503.92 C 432.53 507.56 443.38 511.34 453.00 511.00 C 462.62 510.66 478.05 512.10 486.07 508.07 C 494.09 504.05 508.12 505.65 513.00 498.00
C 515.60 491.97 512.24 482.76 513.00 476.00 C 513.76 469.24 513.38 459.94 513.00 453.00
C 512.27 439.62 500.90 442.74 492.00 444.00 C 483.09 445.26 472.03 448.18 465.77 452.77 C 459.51 457.36 446.13 468.67 447.78 455.78 C 449.43 442.89 433.10 448.46 425.00 444.00
C 428.82 433.51 447.78 443.94 448.00 430.00 C 448.21 416.06 457.94 425.83 466.70 431.30 C 475.46 436.78 489.03 432.61 499.07 431.07 C 509.12 429.53 522.50 429.04 532.67 426.67 C 542.84 424.30 554.96 423.31 565.07 421.07 C 575.18 418.83 588.72 419.33 598.01 416.01 C 607.30 412.69 609.16 400.18 620.00 401.00 C 630.84 401.82 638.79 408.42 640.93 418.07 C 643.07 427.73 632.23 441.11 622.00 437.00 C 611.77 432.89 604.87 428.14 592.93 429.93 C 580.98 431.71 571.01 433.03 558.98 433.98 C 546.94 434.93 536.71 437.26 539.00 452.00 C 541.29 466.74 537.29 475.78 539.00 490.00
C 568.25 474.47 613.72 454.81 641.25 485.75 C 668.77 516.70 628.79 558.28 596.00 561.00
C 594.15 562.92 600.46 568.46 602.00 570.00
C 617.19 582.98 629.52 598.05 644.25 611.75 C 658.98 625.45 676.18 641.87 697.00 643.00
C 700.25 643.18 703.75 643.22 707.00 643.00
C 734.95 641.10 749.08 613.36 761.31 590.31 C 773.53 567.25 781.03 534.22 784.00 506.00 C 786.97 477.78 784.10 435.41 776.22 408.78 C 768.35 382.15 758.43 356.27 743.23 333.77 C 728.03 311.27 714.15 294.38 692.25 277.75 C 670.35 261.13 649.29 249.94 622.78 240.22 C 596.26 230.51 560.70 224.00 531.00 224.00
C 524.33 224.00 517.67 224.00 511.00 224.00
C 421.53 224.00 339.61 271.61 291.23 348.23 C 242.85 424.85 240.58 540.20 291.00 618.00
C 262.72 582.38 247.27 536.02 244.00 490.00
C 243.83 491.75 243.05 494.60 243.00 497.00
C 241.91 551.53 270.39 605.50 305.00 646.00
C 312.25 653.25 319.80 660.80 327.00 668.00
C 336.61 676.21 344.66 682.81 355.08 689.92 C 365.50 697.02 375.54 702.90 387.08 708.92 C 398.62 714.95 409.90 719.77 422.68 724.32 C 435.45 728.88 448.99 731.98 463.00 735.00 C 477.01 738.02 493.71 740.10 509.00 740.00 C 524.29 739.90 541.91 739.66 556.22 737.22 C 570.53 734.78 584.93 732.56 598.02 728.02 C 611.12 723.48 622.79 720.13 634.69 713.70 C 646.60 707.26 656.15 703.28 667.08 695.08 C 678.01 686.88 689.93 679.46 705.00 682.00
C 653.08 730.78 584.16 756.83 513.00 758.00
C 509.23 758.36 504.70 758.36 501.00 758.00
C 361.53 758.00 223.00 643.09 223.00 498.00
C 222.33 491.08 222.34 482.85 223.00 476.00
C 223.00 441.80 232.81 403.38 246.77 373.77 C 260.73 344.16 275.05 321.52 297.77 297.77 C 320.49 274.02 340.38 259.17 368.75 242.75 C 397.11 226.32 430.69 217.09 464.00 211.00 C 497.32 204.91 545.74 206.69 578.02 214.98 C 610.31 223.26 641.44 233.47 668.23 251.77 C 695.02 270.07 713.86 286.28 734.25 311.75 C 754.63 337.22 767.71 362.25 779.93 393.07 C 792.14 423.90 797.91 467.73 795.22 502.22 C 792.53 536.71 784.09 573.76 769.68 603.68 C 755.27 633.60 741.09 657.43 708.93 668.93 C 676.76 680.42 644.01 652.80 622.75 632.25 C 601.50 611.69 588.20 576.69 558.00 570.00
M 530.00 781.00 
C 518.43 782.40 504.50 782.11 493.00 781.00
C 419.58 781.00 350.77 748.77 299.00 697.00
C 295.06 693.06 290.29 688.99 288.00 684.00
C 291.98 687.19 295.89 691.03 299.00 695.00
C 394.30 778.05 534.17 785.77 648.00 740.00
C 654.15 736.86 660.39 732.85 667.00 730.00
C 690.42 719.89 708.79 700.06 728.00 683.00
C 682.83 746.37 605.52 776.52 530.00 781.00 Z"/>
</g>
<g fill="#121635" fill-opacity="1.00" stroke="None">
<path d="
M 223.00 476.00 
C 223.00 483.33 223.00 490.67 223.00 498.00
C 223.00 643.09 361.53 758.00 501.00 758.00
C 505.00 758.00 509.00 758.00 513.00 758.00
C 584.16 756.83 653.08 730.78 705.00 682.00
C 689.93 679.46 678.01 686.88 667.08 695.08 C 656.15 703.28 646.60 707.26 634.69 713.70 C 622.79 720.13 611.12 723.48 598.02 728.02 C 584.93 732.56 570.53 734.78 556.22 737.22 C 541.91 739.66 524.29 739.90 509.00 740.00 C 493.71 740.10 477.01 738.02 463.00 735.00 C 448.99 731.98 435.45 728.88 422.68 724.32 C 409.90 719.77 398.62 714.95 387.08 708.92 C 375.54 702.90 365.50 697.02 355.08 689.92 C 344.66 682.81 336.61 676.21 327.00 668.00
C 319.27 661.39 311.57 653.68 305.00 646.00
C 270.39 605.50 241.91 551.53 243.00 497.00
C 242.32 489.99 242.00 481.70 242.00 474.00
C 242.00 467.80 242.66 462.20 243.00 456.00
C 243.19 452.47 244.00 449.57 244.00 446.00
C 245.57 448.94 245.71 455.13 244.00 458.00
C 244.87 465.09 244.00 472.85 244.00 480.00
C 244.00 483.33 244.00 486.67 244.00 490.00
C 247.27 536.02 262.72 582.38 291.00 618.00
C 240.58 540.20 242.85 424.85 291.23 348.23 C 339.61 271.61 421.53 224.00 511.00 224.00
C 517.30 223.39 524.77 223.40 531.00 224.00
C 560.70 224.00 596.26 230.51 622.78 240.22 C 649.29 249.94 670.35 261.13 692.25 277.75 C 714.15 294.38 728.03 311.27 743.23 333.77 C 758.43 356.27 768.35 382.15 776.22 408.78 C 784.10 435.41 786.97 477.78 784.00 506.00 C 781.03 534.22 773.53 567.25 761.31 590.31 C 749.08 613.36 734.95 641.10 707.00 643.00
C 703.53 643.62 700.40 643.55 697.00 643.00
C 676.18 641.87 658.98 625.45 644.25 611.75 C 629.52 598.05 617.19 582.98 602.00 570.00
C 599.11 567.53 596.45 564.47 593.00 563.00
C 593.44 561.71 594.58 560.79 596.00 561.00
C 628.79 558.28 668.77 516.70 641.25 485.75 C 613.72 454.81 568.25 474.47 539.00 490.00
C 537.29 475.78 541.29 466.74 539.00 452.00 C 536.71 437.26 546.94 434.93 558.98 433.98 C 571.01 433.03 580.98 431.71 592.93 429.93 C 604.87 428.14 611.77 432.89 622.00 437.00 C 632.23 441.11 643.07 427.73 640.93 418.07 C 638.79 408.42 630.84 401.82 620.00 401.00 C 609.16 400.18 607.30 412.69 598.01 416.01 C 588.72 419.33 575.18 418.83 565.07 421.07 C 554.96 423.31 542.84 424.30 532.67 426.67 C 522.50 429.04 509.12 429.53 499.07 431.07 C 489.03 432.61 475.46 436.78 466.70 431.30 C 457.94 425.83 448.21 416.06 448.00 430.00 C 447.78 443.94 428.82 433.51 425.00 444.00
C 433.10 448.46 449.43 442.89 447.78 455.78 C 446.13 468.67 459.51 457.36 465.77 452.77 C 472.03 448.18 483.09 445.26 492.00 444.00 C 500.90 442.74 512.27 439.62 513.00 453.00
C 514.00 459.15 514.99 468.20 514.00 475.00 C 513.01 481.80 516.53 492.46 513.00 498.00
C 508.12 505.65 494.09 504.05 486.07 508.07 C 478.05 512.10 462.62 510.66 453.00 511.00 C 443.38 511.34 432.53 507.56 424.08 503.92 C 415.62 500.29 409.64 495.67 403.25 488.75 C 396.86 481.84 392.42 475.99 388.98 467.02 C 385.53 458.06 384.00 446.14 384.00 436.00 C 384.00 425.86 385.79 413.45 388.08 404.08 C 390.37 394.70 394.70 387.05 398.70 378.70 C 402.69 370.34 407.53 364.35 413.00 357.00
C 416.01 352.95 420.10 349.08 424.00 346.00
C 441.77 331.97 462.79 321.00 486.00 321.00
C 490.79 320.54 496.23 320.32 501.00 321.00
C 506.52 321.75 520.61 322.06 521.02 330.98 C 521.44 339.89 526.96 348.37 534.25 340.25 C 541.53 332.12 545.75 335.15 550.00 327.00
C 539.12 326.23 538.75 316.00 539.00 307.00 C 539.25 298.00 539.06 286.11 528.01 290.01 C 516.96 293.90 524.15 302.73 519.00 311.00
C 503.91 310.61 483.53 308.93 469.07 311.07 C 454.62 313.22 442.18 317.54 429.70 322.69 C 417.21 327.85 407.86 334.85 397.70 342.70 C 387.53 350.55 379.53 357.48 371.92 367.92 C 364.31 378.35 358.51 388.46 353.98 400.98 C 349.44 413.49 346.33 432.06 347.01 445.99 C 347.69 459.93 352.05 473.41 359.08 484.92 C 366.10 496.44 373.32 502.73 384.77 510.23 C 396.22 517.73 409.29 521.19 423.33 523.67 C 437.37 526.15 456.88 524.17 470.98 522.98 C 485.07 521.78 497.40 512.75 511.00 512.00
C 511.34 511.98 512.99 510.11 514.00 511.00
C 513.33 556.84 515.33 603.99 513.00 649.00
C 510.87 655.73 506.72 660.99 517.00 660.00 C 527.28 659.01 529.26 660.85 539.00 660.00 C 548.73 659.15 539.61 654.17 539.00 648.00 C 538.39 641.83 539.38 633.08 539.00 626.00 C 538.62 618.92 539.40 611.81 539.00 604.00 C 538.60 596.19 539.69 590.86 539.00 582.00 C 538.31 573.14 539.02 570.00 549.00 570.00
C 552.07 569.70 554.86 569.30 558.00 570.00
C 588.20 576.69 601.50 611.69 622.75 632.25 C 644.01 652.80 676.76 680.42 708.93 668.93 C 741.09 657.43 755.27 633.60 769.68 603.68 C 784.09 573.76 792.53 536.71 795.22 502.22 C 797.91 467.73 792.14 423.90 779.93 393.07 C 767.71 362.25 754.63 337.22 734.25 311.75 C 713.86 286.28 695.02 270.07 668.23 251.77 C 641.44 233.47 610.31 223.26 578.02 214.98 C 545.74 206.69 497.32 204.91 464.00 211.00 C 430.69 217.09 397.11 226.32 368.75 242.75 C 340.38 259.17 320.49 274.02 297.77 297.77 C 275.05 321.52 260.73 344.16 246.77 373.77 C 232.81 403.38 223.00 441.80 223.00 476.00
M 389.00 367.00 
C 376.77 391.98 364.11 422.11 370.33 450.67 C 376.55 479.23 390.73 496.59 415.00 511.00
C 351.69 493.16 344.86 403.32 390.00 363.00
C 392.27 360.57 393.76 356.67 397.00 356.00
C 394.65 359.87 392.14 363.90 389.00 367.00
M 617.00 541.00 
C 633.76 526.70 635.98 499.35 618.00 485.00
C 643.34 493.54 642.11 532.82 617.00 541.00
M 612.00 510.00 
C 612.73 513.28 612.80 515.76 612.00 519.00
C 609.70 528.28 603.78 536.57 595.30 541.30 C 586.82 546.04 577.24 552.39 567.93 553.93 C 558.61 555.46 539.41 563.85 539.00 551.00 C 538.59 538.15 539.34 523.41 539.00 511.00 C 538.66 498.59 550.97 497.33 560.23 492.23 C 569.49 487.13 582.75 486.64 593.07 488.93 C 603.39 491.21 609.78 499.97 612.00 510.00 Z"/>
</g>
<g fill="#75778B" fill-opacity="1.00" stroke="None">
<path d="
M 511.00 224.00 
C 517.67 224.00 524.33 224.00 531.00 224.00
C 524.77 223.40 517.30 223.39 511.00 224.00 Z"/>
</g>
<g fill="#818295" fill-opacity="1.00" stroke="None">
<path d="
M 486.00 321.00 
C 490.99 321.00 496.02 320.81 501.00 321.00
C 496.23 320.32 490.79 320.54 486.00 321.00 Z"/>
</g>
<g fill="#818396" fill-opacity="1.00" stroke="None">
<path d="
M 413.00 357.00 
C 416.08 353.47 420.50 349.24 424.00 346.00
C 420.10 349.08 416.01 352.95 413.00 357.00 Z"/>
</g>
<g fill="#9699A8" fill-opacity="1.00" stroke="None">
<path d="
M 390.00 363.00 
C 390.04 362.92 389.45 366.09 389.00 367.00
C 392.14 363.90 394.65 359.87 397.00 356.00
C 393.76 356.67 392.27 360.57 390.00 363.00 Z"/>
</g>
<g fill="#EAEBED" fill-opacity="1.00" stroke="None">
<path d="
M 389.00 367.00 
C 389.45 366.09 390.04 362.92 390.00 363.00
C 344.86 403.32 351.69 493.16 415.00 511.00
C 390.73 496.59 376.55 479.23 370.33 450.67 C 364.11 422.11 376.77 391.98 389.00 367.00 Z"/>
</g>
<g fill="#3E415E" fill-opacity="1.00" stroke="None">
<path d="
M 243.00 456.00 
C 243.13 456.51 243.88 457.02 244.00 458.00
C 245.71 455.13 245.57 448.94 244.00 446.00
C 244.00 449.57 243.19 452.47 243.00 456.00 Z"/>
</g>
<g fill="#616478" fill-opacity="1.00" stroke="None">
<path d="
M 513.00 498.00 
C 516.53 492.46 513.01 481.80 514.00 475.00 C 514.99 468.20 514.00 459.15 513.00 453.00
C 513.38 459.94 513.76 469.24 513.00 476.00 C 512.24 482.76 515.60 491.97 513.00 498.00 Z"/>
</g>
<g fill="#818399" fill-opacity="1.00" stroke="None">
<path d="
M 242.00 474.00 
C 242.16 475.30 243.85 478.76 244.00 480.00
C 244.00 472.85 244.87 465.09 244.00 458.00
C 243.88 457.02 243.13 456.51 243.00 456.00
C 242.66 462.20 242.00 467.80 242.00 474.00 Z"/>
</g>
<g fill="#AFB0BF" fill-opacity="1.00" stroke="None">
<path d="
M 243.00 497.00 
C 243.05 494.60 243.83 491.75 244.00 490.00
C 244.00 486.67 244.00 483.33 244.00 480.00
C 243.85 478.76 242.16 475.30 242.00 474.00
C 242.00 481.70 242.32 489.99 243.00 497.00 Z"/>
</g>
<g fill="#8E91A0" fill-opacity="1.00" stroke="None">
<path d="
M 223.00 498.00 
C 223.00 490.67 223.00 483.33 223.00 476.00
C 222.34 482.85 222.33 491.08 223.00 498.00 Z"/>
</g>
<g fill="#DFE0E4" fill-opacity="1.00" stroke="None">
<path d="
M 617.00 541.00 
C 642.11 532.82 643.34 493.54 618.00 485.00
C 635.98 499.35 633.76 526.70 617.00 541.00 Z"/>
</g>
<g fill="#FAFAFB" fill-opacity="1.00" stroke="None">
<path d="
M 612.00 519.00 
C 612.34 516.25 612.28 512.75 612.00 510.00
C 609.78 499.97 603.39 491.21 593.07 488.93 C 582.75 486.64 569.49 487.13 560.23 492.23 C 550.97 497.33 538.66 498.59 539.00 511.00 C 539.34 523.41 538.59 538.15 539.00 551.00 C 539.41 563.85 558.61 555.46 567.93 553.93 C 577.24 552.39 586.82 546.04 595.30 541.30 C 603.78 536.57 609.70 528.28 612.00 519.00 Z"/>
</g>
<g fill="#848797" fill-opacity="1.00" stroke="None">
<path d="
M 612.00 519.00 
C 612.80 515.76 612.73 513.28 612.00 510.00
C 612.28 512.75 612.34 516.25 612.00 519.00 Z"/>
</g>
<g fill="#63667B" fill-opacity="1.00" stroke="None">
<path d="
M 511.00 512.00 
C 516.53 514.07 511.87 531.03 513.00 538.00 C 514.13 544.97 512.60 557.78 513.00 566.00 C 513.40 574.22 513.07 585.28 513.00 594.00 C 512.93 602.72 513.58 613.19 513.00 622.00 C 512.42 630.81 514.55 640.34 513.00 649.00
C 515.33 603.99 513.33 556.84 514.00 511.00
C 512.99 510.11 511.34 511.98 511.00 512.00 Z"/>
</g>
<g fill="#818493" fill-opacity="1.00" stroke="None">
<path d="
M 602.00 570.00 
C 600.46 568.46 594.15 562.92 596.00 561.00
C 594.58 560.79 593.44 561.71 593.00 563.00
C 596.45 564.47 599.11 567.53 602.00 570.00 Z"/>
</g>
<g fill="#818295" fill-opacity="1.00" stroke="None">
<path d="
M 549.00 570.00 
C 551.95 570.00 555.07 569.70 558.00 570.00
C 554.86 569.30 552.07 569.70 549.00 570.00 Z"/>
</g>
<g fill="#757688" fill-opacity="1.00" stroke="None">
<path d="
M 707.00 643.00 
C 703.75 643.22 700.25 643.18 697.00 643.00
C 700.40 643.55 703.53 643.62 707.00 643.00 Z"/>
</g>
<g fill="#858796" fill-opacity="1.00" stroke="None">
<path d="
M 327.00 668.00 
C 319.80 660.80 312.25 653.25 305.00 646.00
C 311.57 653.68 319.27 661.39 327.00 668.00 Z"/>
</g>
<g fill="#CAA741" fill-opacity="1.00" stroke="None">
<path d="
M 667.00 730.00 
C 660.87 733.56 654.76 737.28 648.00 740.00
C 534.17 785.77 394.30 778.05 299.00 695.00
C 299.02 695.07 298.53 696.03 299.00 697.00
C 350.77 748.77 419.58 781.00 493.00 781.00
C 505.32 781.00 517.68 781.25 530.00 781.00
C 605.52 776.52 682.83 746.37 728.00 683.00
C 708.79 700.06 690.42 719.89 667.00 730.00 Z"/>
</g>
<g fill="#E0D4A5" fill-opacity="1.00" stroke="None">
<path d="
M 299.00 697.00 
C 298.53 696.03 299.02 695.07 299.00 695.00
C 295.89 691.03 291.98 687.19 288.00 684.00
C 290.29 688.99 295.06 693.06 299.00 697.00 Z"/>
</g>
<g fill="#E1D4A3" fill-opacity="1.00" stroke="None">
<path d="
M 648.00 740.00 
C 654.76 737.28 660.87 733.56 667.00 730.00
C 660.39 732.85 654.15 736.86 648.00 740.00 Z"/>
</g>
<g fill="#797A8D" fill-opacity="1.00" stroke="None">
<path d="
M 513.00 758.00 
C 509.00 758.00 505.00 758.00 501.00 758.00
C 504.70 758.36 509.23 758.36 513.00 758.00 Z"/>
</g>
<g fill="#E5D8A6" fill-opacity="1.00" stroke="None">
<path d="
M 530.00 781.00 
C 517.68 781.25 505.32 781.00 493.00 781.00
C 504.50 782.11 518.43 782.40 530.00 781.00 Z"/>
</g>
</svg>